<svg height="512" viewBox="0 0 60 46" width="512" xmlns="http://www.w3.org/2000/svg"><g transform="translate(0 -1)"><path d="M0 41c0 5.416 16.084 6 23 6 8.566 0 15.533-.832 19.326-2.292A8.033 8.033 0 0047.483 47c.813 0 .791-.043 6.056-1.228 2.886-.65 4.991-3.634 5.932-8.4a39.769 39.769 0 00-.632-15.856C56.067 9.207 49.4.573 43.652 1.871l-4.877 1.1c-2.051.462-3.657 2.133-4.76 4.632C26.827 5.651 26.053 11 19.142 10.01 13.1 9.147 13 2.29 13 2a1 1 0 00-1.786-.619c-.209.266-4.89 6.331-3.943 13.618C1.793 15.867 1 16.951 1 18v3.4c-.592.32-.971.928-1 1.6zm9.938-19.646c7.519.743 15.087.848 22.624.313.106 1 .239 2.02.419 3.059-6.654.386-24.2.606-29.981-1.385V20a30.507 30.507 0 006.938 1.354zM2 41V29.055A56.283 56.283 0 0014.937 31a1.002 1.002 0 10.125-2C7.751 28.545 3.959 27.673 2 26.944V25.1c6.009 2.308 24.542 2.02 31.369 1.609 1.207 5.629 3.6 12.081 7.394 16.434C37.056 44.329 30.729 45 23 45 8.515 45 2 42.661 2 41zm54.888-19.046a37.726 37.726 0 01.62 15.03c-.766 3.886-2.372 6.378-4.408 6.837-4.007.9-10.1-6.171-12.8-18.132s-.213-20.965 3.792-21.867a3.29 3.29 0 01.706-.077c3.984 0 9.55 6.931 12.09 18.209zM39.214 4.921l.606-.137c-6.239 9.442-.678 34.143 9.009 40l-.607.137c-2.037.458-4.557-1.1-6.915-4.286a37.742 37.742 0 01-5.882-13.845c-.469-2.09-.8-4.209-.989-6.342-.727-8.695 1.52-14.793 4.778-15.527zM10.119 7.706c.1 4.606 2.366 7.843 6.565 9.243a1.001 1.001 0 00.632-1.9c-4.3-1.434-5.3-4.932-5.193-8.15a8.52 8.52 0 006.735 5.089c7.574 1.085 8.371-4.014 14.457-2.5a30.1 30.1 0 00-.92 10.186 132.32 132.32 0 01-21.688-.252 14.157 14.157 0 01-.588-11.716zm-2.467 9.258c.198.74.445 1.468.738 2.176a21.24 21.24 0 01-5-1.138 17.961 17.961 0 014.262-1.038z"/><circle cx="19" cy="30" r="1"/><path d="M42.137 16.263a1 1 0 001.99-.2c-.477-4.772.484-6.282 1.1-6.757a1.721 1.721 0 011.544-.21 1 1 0 00.732-1.861 3.7 3.7 0 00-3.463.461c-1.703 1.281-2.34 4.163-1.903 8.567zM50.5 38.929a3.7 3.7 0 003.464-.462c1.7-1.281 2.343-4.163 1.9-8.567a1 1 0 00-1.99.2c.478 4.772-.484 6.281-1.1 6.757a1.717 1.717 0 01-1.543.211 1 1 0 00-.733 1.861z"/></g></svg>