<svg height="512" viewBox="0 0 58 58" width="512" xmlns="http://www.w3.org/2000/svg"><g fill="#fcd977"><path d="M28.25 13C33.9 5.8 24.19 1 14 10.76 4.55 19.76.48 31.36.05 44.32-.1 48.9-.22 53.66 3.5 56.89a5.6 5.6 0 004 1.11 6.18 6.18 0 005.5-4.06c1.54-3.49.19-9.86 1.06-15.82a39 39 0 0110.24-21A52.86 52.86 0 0028.25 13zM7 53a2 2 0 110-4 2 2 0 010 4zm15-39a2 2 0 110-4 2 2 0 010 4z"/><path d="M29.21 14.94c-.93 1.09-2 2-3.54 3.54l7.24 7.24-1.41 1.41 8.66 8.67.25-1.74a1 1 0 011.98.28l-.46 3.22 1.76 1.77.25-1.74a1.01 1.01 0 012 .29l-.46 3.21 1.77 1.78.25-1.74a1.01 1.01 0 112 .28l-.5 3.22 1.76 1.77.24-1.73a1.014 1.014 0 012 .33l-.46 3.22 3 3 .71-.71a6 6 0 000-8.48zM28 30.67a1 1 0 000 1.41l22.59 22.63a1 1 0 001.41 0l2.12-2.12-24-24.05zM15.74.14a2 2 0 00-2.6 1.12c-.08.21-1.62 4.17-.16 7.73a24.2 24.2 0 013.4-2.72 8.55 8.55 0 01.48-3.54A2 2 0 0015.74.14z"/></g></svg>